name C:\Users\r0593348\3dpredictsim\Results\batch_windlass\Pog_s1_tmt_bCst_d00_k500_WL40_ig24_act_TTC.mot
datacolumns 128
datarows 4
range 1.21509423 1.25154706
endheader
time	pelvis_tilt	pelvis_list	pelvis_rotation	pelvis_tx	pelvis_ty	pelvis_tz	hip_flexion_l	hip_adduction_l	hip_rotation_l	hip_flexion_r	hip_adduction_r	hip_rotation_r	knee_angle_l	knee_angle_r	ankle_angle_l	ankle_angle_r	subtalar_angle_l	subtalar_angle_r	tmt_angle_l	tmt_angle_r	mtp_angle_l	mtp_angle_r	lumbar_extension	lumbar_bending	lumbar_rotation	arm_flex_l	arm_add_l	arm_rot_l	arm_flex_r	arm_add_r	arm_rot_r	elbow_flex_l	elbow_flex_r	pro_sup_l	pro_sup_r	glut_med1_l/activation	glut_med2_l/activation	glut_med3_l/activation	glut_min1_l/activation	glut_min2_l/activation	glut_min3_l/activation	semimem_l/activation	semiten_l/activation	bifemlh_l/activation	bifemsh_l/activation	sar_l/activation	add_long_l/activation	add_brev_l/activation	add_mag1_l/activation	add_mag2_l/activation	add_mag3_l/activation	tfl_l/activation	pect_l/activation	grac_l/activation	glut_max1_l/activation	glut_max2_l/activation	glut_max3_l/activation	iliacus_l/activation	psoas_l/activation	quad_fem_l/activation	gem_l/activation	peri_l/activation	rect_fem_l/activation	vas_med_l/activation	vas_int_l/activation	vas_lat_l/activation	med_gas_l/activation	lat_gas_l/activation	soleus_l/activation	tib_post_l/activation	flex_dig_l/activation	flex_hal_l/activation	tib_ant_l/activation	per_brev_l/activation	per_long_l/activation	per_tert_l/activation	ext_dig_l/activation	ext_hal_l/activation	ercspn_l/activation	intobl_l/activation	extobl_l/activation	glut_med1_r/activation	glut_med2_r/activation	glut_med3_r/activation	glut_min1_r/activation	glut_min2_r/activation	glut_min3_r/activation	semimem_r/activation	semiten_r/activation	bifemlh_r/activation	bifemsh_r/activation	sar_r/activation	add_long_r/activation	add_brev_r/activation	add_mag1_r/activation	add_mag2_r/activation	add_mag3_r/activation	tfl_r/activation	pect_r/activation	grac_r/activation	glut_max1_r/activation	glut_max2_r/activation	glut_max3_r/activation	iliacus_r/activation	psoas_r/activation	quad_fem_r/activation	gem_r/activation	peri_r/activation	rect_fem_r/activation	vas_med_r/activation	vas_int_r/activation	vas_lat_r/activation	med_gas_r/activation	lat_gas_r/activation	soleus_r/activation	tib_post_r/activation	flex_dig_r/activation	flex_hal_r/activation	tib_ant_r/activation	per_brev_r/activation	per_long_r/activation	per_tert_r/activation	ext_dig_r/activation	ext_hal_r/activation	ercspn_r/activation	intobl_r/activation	extobl_r/activation	
          1.21509423	         -2.92906285	         -0.14617973	          7.36216656	          1.51886779	          0.86473791	         -0.00114943	        -13.74798222	         -0.84167851	          9.14759900	         31.12425796	          0.04302619	          0.25831538	        -19.05802681	        -15.98509846	        -12.23283478	          8.86221865	         19.42637893	          6.55142812	        -14.99999994	         -0.51246133	         36.61119934	          1.16162005	          0.68838825	         -1.81185587	         -2.78091173	          2.61919024	        -13.51361421	         16.70266467	        -15.41845762	        -13.52491109	          7.69284818	         44.15157025	         20.49516154	         86.51662706	         86.51662706	          0.14242013	          0.06799175	          0.05719434	          0.15135047	          0.10831555	          0.06382055	          0.05002364	          0.05000220	          0.05000232	          0.05000085	          0.06012649	          0.21888120	          0.10391323	          0.18634691	          0.05035752	          0.06487694	          0.13878369	          0.05000568	          0.05003253	          0.05710415	          0.06585092	          0.08694031	          0.30717508	          0.46142277	          0.08150688	          0.05000424	          0.05000152	          0.23470417	          0.13080642	          0.05038588	          0.08872142	          0.10185241	          0.14304313	          0.05000005	          0.09689595	          0.10443931	          0.10981725	          0.38230345	          0.54214611	          0.37507522	          0.69062302	          0.62663640	          0.17454606	          0.05000002	          0.05176332	          0.08821242	          0.06012630	          0.05000374	          0.09690795	          0.05170564	          0.05000437	          0.05000633	          0.10187880	          0.06074915	          0.15975308	          0.05000047	          0.05000040	          0.06012811	          0.19405185	          0.23643582	          0.21027158	          0.13475285	          0.05000156	          0.06012520	          0.07230378	          0.05000450	          0.10989884	          0.12977786	          0.05000032	          0.05000024	          0.12482140	          0.05000117	          0.05196525	          0.05000011	          0.13706967	          0.14100522	          0.12124389	          0.06012579	          0.06012579	          0.06012578	          0.05000019	          0.05000088	          0.05000206	          0.53048862	          0.23716679	          0.14285488	          0.09053689	          0.60478149	          0.40388408	          0.05000012	          0.09322976	          0.10134830	
          1.22724518	         -2.92212139	         -0.08770718	          7.47833968	          1.53832144	          0.86312719	         -0.00084562	        -13.62145219	         -0.95290460	          8.87556562	         30.34223697	          0.34243575	          0.43134484	        -20.80244901	        -15.85805683	        -14.74827308	          8.19900165	         19.70475323	          6.22774614	        -14.52204480	         -0.61096130	         34.86108681	          1.47086439	          0.91757793	         -1.63108371	         -2.87738251	          2.18475497	        -13.57385233	         16.92372240	        -16.69334264	        -13.52419982	          7.78904671	         45.16628121	         20.31878644	         86.51662706	         86.51662706	          0.11843524	          0.06016367	          0.07230239	          0.12586171	          0.09007435	          0.07230256	          0.05000568	          0.05000036	          0.05000094	          0.05000019	          0.05000227	          0.21384419	          0.23545548	          0.16969107	          0.07231661	          0.07232060	          0.11541138	          0.06472806	          0.05000157	          0.05001346	          0.05477181	          0.07230163	          0.25544380	          0.43189614	          0.16473073	          0.07230623	          0.07230284	          0.19517767	          0.10877887	          0.15118649	          0.08952450	          0.08469945	          0.11895325	          0.05000003	          0.08057772	          0.08685084	          0.09132297	          0.31791983	          0.45084353	          0.31190910	          0.72641631	          0.79372889	          0.50825331	          0.05598054	          0.07230235	          0.08718349	          0.05000049	          0.05038045	          0.16561335	          0.05000020	          0.05000025	          0.05000100	          0.08472141	          0.05051848	          0.13284910	          0.05000030	          0.05000328	          0.05000205	          0.16137167	          0.26306802	          0.22452367	          0.12330210	          0.05000169	          0.05000174	          0.06012732	          0.06012605	          0.12941818	          0.13642382	          0.05000012	          0.05000047	          0.40026838	          0.09069399	          0.08757639	          0.07230226	          0.26950292	          0.27155576	          0.23630158	          0.05000002	          0.05000006	          0.05000001	          0.05000049	          0.06012712	          0.06012422	          0.64123611	          0.28521463	          0.15434101	          0.49752402	          0.63674014	          0.44358011	          0.05000001	          0.07752895	          0.08428024	
          1.23939612	         -2.90960049	         -0.05305004	          7.55754780	          1.55783050	          0.86098000	         -0.00057170	        -13.35976662	         -1.05444667	          8.61585001	         29.43457763	          0.59857062	          0.66134932	        -22.89101712	        -16.34123641	        -16.90027644	          7.54654952	         19.87402092	          5.83255180	        -13.34749706	         -1.10037207	         31.47376136	          1.67099422	          1.14338560	         -1.41368941	         -2.95448508	          1.70993185	        -13.63649320	         17.06219759	        -17.87004030	        -13.54695762	          8.05712030	         46.15998016	         19.97377321	         86.51662706	         86.51662706	          0.26897898	          0.05003180	          0.06012598	          0.10466569	          0.07490524	          0.06012628	          0.05000360	          0.05000042	          0.05000080	          0.05000018	          0.05000973	          0.17783124	          0.24344259	          0.14111395	          0.06014118	          0.06014219	          0.09597523	          0.07976467	          0.05490564	          0.05001648	          0.05000926	          0.06012590	          0.21242462	          0.37208147	          0.13698848	          0.06012937	          0.06012636	          0.16230781	          0.09045946	          0.12572520	          0.07444770	          0.07043525	          0.09892036	          0.05339489	          0.06700767	          0.07222463	          0.07594333	          0.32496354	          0.43898809	          0.30755268	          0.61824477	          0.88604199	          0.42265838	          0.07115631	          0.06012592	          0.07250095	          0.27958655	          0.29848129	          0.40951341	          0.18486573	          0.08433537	          0.26439778	          0.09534358	          0.05000022	          0.12106363	          0.05000009	          0.05000064	          0.07230229	          0.13419646	          0.21876504	          0.21112085	          0.15676666	          0.05000034	          0.07230070	          0.05000214	          0.05000034	          0.12740505	          0.15552902	          0.05112102	          0.05000058	          0.33285924	          0.07542053	          0.29056262	          0.06012585	          0.22411607	          0.22582329	          0.19650620	          0.05298137	          0.05139295	          0.05819619	          0.05000003	          0.05000131	          0.05000106	          0.60122606	          0.23718170	          0.12834846	          0.72239833	          0.73178721	          0.57433306	          0.05000004	          0.07233786	          0.07008662	
          1.25154706	         -2.89445359	         -0.05441945	          7.59647110	          1.57713910	          0.85856702	         -0.00028324	        -12.93727846	         -1.16287009	          8.37655571	         28.49627944	          0.86381161	          0.90972496	        -25.30923344	        -17.00468126	        -18.69877800	          7.39286542	         19.97016241	          5.41136577	        -11.54262760	         -1.67529220	         26.50553542	          1.86256011	          1.34866668	         -1.15029708	         -3.01426334	          1.24900887	        -13.69305447	         17.15452232	        -18.89103105	        -13.58075569	          8.47969989	         47.05819376	         19.44012226	         86.51662706	         86.51662706	          0.22368040	          0.05000018	          0.05000021	          0.11192307	          0.06229097	          0.05000075	          0.06216853	          0.05643987	          0.06107663	          0.05003258	          0.05605221	          0.19396802	          0.20244480	          0.11734949	          0.05001394	          0.05001424	          0.07981242	          0.06633332	          0.05000344	          0.05000158	          0.05000092	          0.05000064	          0.17665222	          0.36411588	          0.11391830	          0.05000326	          0.05000060	          0.13497356	          0.07522520	          0.10455184	          0.06190998	          0.05857329	          0.08226120	          0.05000001	          0.05711537	          0.06006314	          0.06315381	          0.40935289	          0.37677419	          0.27293477	          0.57371496	          0.73682369	          0.42446874	          0.10704028	          0.05000012	          0.06029108	          0.38595754	          0.49273755	          0.61318619	          0.32340583	          0.31619990	          0.45427349	          0.07928679	          0.08694552	          0.10067533	          0.07297493	          0.05000458	          0.06012593	          0.11159649	          0.18192302	          0.17662848	          0.17258592	          0.05000027	          0.06012504	          0.08694430	          0.31502227	          0.24144560	          0.19996850	          0.05000016	          0.05000014	          0.27680250	          0.06271993	          0.27120696	          0.05000007	          0.18637322	          0.32001402	          0.26340820	          0.05000000	          0.05000001	          0.05000000	          0.05000010	          0.05000044	          0.05000016	          0.77969052	          0.19723795	          0.10673331	          0.73593250	          0.71710965	          0.65963615	          0.06608224	          0.06015546	          0.05828335	
